{"title":"IONEL ISTRATI - WAKE ME UP (Official Video 4k 5.1).mp4","uid":12785693,"size":544795316,"categoryP":"video","categoryS":"music_videos","magnet":"?xt=urn:btih:6d7e6b40942459752488e4bc76423a96edb803e9&amp;dn=IONEL+ISTRATI+-+WAKE+ME+UP+%28Official+Video+4k+5.1%29.mp4&amp;tr=udp%3A%2F%2Ftracker.leechers-paradise.org%3A6969&amp;tr=udp%3A%2F%2Fzer0day.ch%3A1337&amp;tr=udp%3A%2F%2Fopen.demonii.com%3A1337&amp;tr=udp%3A%2F%2Ftracker.coppersurfer.tk%3A6969&amp;tr=udp%3A%2F%2Fexodus.desync.com%3A6969","seeders":0,"leechers":1,"uploader":"wemortals","files":1,"time":1447862588,"description":"General\r\nComplete name                            : IONEL ISTRATI - WAKE ME UP (Official Video 4k 5.1).mp4\r\nFormat                                   : MPEG-4\r\n\r\nFile size                                : 520 MiB\r\nDuration                                 : 4mn 37s\r\nOverall bit rate                         : 15.7 Mbps\r\n\r\n\r\nVideo\r\nID                                       : 1\r\nFormat                                   : MPEG-4 Visual\r\n\r\nDuration                                 : 4mn 37s\r\nBit rate                                 : 15.4 Mbps\r\nWidth                                    : 3 840 pixels\r\nHeight                                   : 2 160 pixels\r\nDisplay aspect ratio                     : 16:9\r\nFrame rate mode                          : Constant\r\nFrame rate                               : 23.976 fps\r\nColor space                              : YUV\r\nChroma subsampling                       : 4:2:0\r\nBit depth                                : 8 bits\r\nStream size                              : 510 MiB (98%)\r\n\r\nAudio\r\nID                                       : 2\r\nFormat                                   : AAC\r\nFormat/Info                              : Advanced Audio Codec\r\nFormat profile                           : LC\r\nDuration                                 : 4mn 37s\r\nBit rate                                 : 297 Kbps\r\nChannel(s)                               : 2 channels\r\nChannel(s)_Original                      : 6 channels\r\nChannel positions                        : Front: L C R, Side: L R, LFE\r\nSampling rate                            : 44.1 KHz\r\nStream size                              : 9.84 MiB (2%)","torrent":{"xt":"urn:btih:6d7e6b40942459752488e4bc76423a96edb803e9","amp;dn":"IONEL+ISTRATI+-+WAKE+ME+UP+%28Official+Video+4k+5.1%29.mp4","amp;tr":["udp%3A%2F%2Ftracker.leechers-paradise.org%3A6969","udp%3A%2F%2Fzer0day.ch%3A1337","udp%3A%2F%2Fopen.demonii.com%3A1337","udp%3A%2F%2Ftracker.coppersurfer.tk%3A6969","udp%3A%2F%2Fexodus.desync.com%3A6969"],"infoHash":"6d7e6b40942459752488e4bc76423a96edb803e9","infoHashBuffer":{"type":"Buffer","data":[109,126,107,64,148,36,89,117,36,136,228,188,118,66,58,150,237,184,3,233]},"announce":[],"urlList":[]}}